<svg xmlns="http://www.w3.org/2000/svg" version="1.1" xmlns:xlink="http://www.w3.org/1999/xlink" xmlns:svgjs="http://svgjs.dev/svgjs" viewBox="0 0 12.23031862533523 5.645111472014914"><g transform="matrix(0.7912157797507714,0,0,0.7912157797507714,5.470431257353427,2.0388354508615856)"><g transform="matrix(1,0,0,1,0,0)" clip-path="url(#SvgjsClipPath1603)"><g clip-path="url(#SvgjsClipPath16019ca38259-8067-4675-8ee4-f1f153b60502)"><path d=" M -1.461000900577654 2.8021714645604714 C -1.3820806111551085 2.759064477071771 -1.3062476748617238 2.710531397844 -1.2340488362829847 2.6569221434118724 L -1.4008586035395534 2.3959272694729785 L -1.4008586035395534 2.3959272694729785 L -1.422419049647523 2.366423501114669 L -1.4791570657212199 2.280181716682688 L -1.4978806110255358 2.2512453284851164 L -1.4712137434708894 2.2296848823771196 C -1.2100362084950769 2.0167299973024555 -1.0226222617213114 1.7268736813175856 -0.9356068717353856 1.4013098477015087 C -0.8488570851504407 1.0768645769977374 -0.8669291950385372 0.7332958945101098 -0.9872384663624767 0.4197421696269814 C -1.0391289506538364 0.2837242964528248 -1.1093785509158156 0.15544241771352274 -1.19603436551358 0.03846270161190679 C -1.273241215624886 -0.06679966594165232 -1.3631944296668523 -0.16208908759628216 -1.4638378013813083 -0.24522737875645473 L -1.6062502217262056 0.029951999200855894 C -1.5351927793220832 0.0942730333037527 -1.4716220953634322 0.16640862977181126 -1.4167452480401441 0.24498908012007625 C -1.3556891001015323 0.33306301990113507 -1.3057589908546516 0.4283494879295424 -1.2680916459271416 0.5286791604884333 C -1.1489302116399704 0.8391785372805005 -1.1542147542928847 1.1836900679224576 -1.2828435301062564 1.4903885329371735 C -1.4048719283454512 1.7835725176914712 -1.630436027673944 2.0216567371259293 -1.9166071696491942 2.1593297424457667 L -1.7350455182134636 2.443019822814125 L -1.6783075021397669 2.5298289874068427 L -1.6550449155495714 2.565573937533256 L -1.6936267664796554 2.5848648629983035 C -1.7185914935520525 2.5967798463737743 -1.7435562206244972 2.608694829749247 -1.7679535675361446 2.619475052803244 C -1.792350914447792 2.630255275857241 -1.8195851621631882 2.641035498911239 -1.8439825090748831 2.6506809616437623 C -2.283980623481948 2.819176475797242 -2.772967958530467 2.805497080620518 -3.2028579940393156 2.6126664908744024 C -3.6333974799908444 2.4211695080599904 -3.9697503036521287 2.0658240841555546 -4.137333118772686 1.6254250111925106 C -4.15378714343405 1.582871499137257 -4.167971647452462 1.5397506069212656 -4.1810213911494225 1.4960623345445379 C -4.191234234042658 1.4631542852218085 -4.1997449364537385 1.4296788557383409 -4.207688258704046 1.3962034262548764 L -4.512938785180405 1.4103879302732933 C -4.503293322447896 1.4574804836144397 -4.491945719233161 1.5045730369555887 -4.4783285953754985 1.5522329704574733 C -4.461307190553361 1.6123752674955651 -4.441448884927593 1.6725175645336583 -4.418753678498124 1.7326598615717501 C -4.222408875352304 2.2475945411992813 -3.82922678898555 2.663232509964992 -3.3259794889191707 2.887845868831713 C -2.823294576076763 3.1130466848803904 -2.2516169003334547 3.12876782096333 -1.7373150388564156 2.9315341412084424 C -1.642652399365577 2.8951775750891997 -1.5506941483751056 2.8521373215328403 -1.462135660899059 2.8027388447212056 Z M -2.5021434955295163 -1.0866521571290069 C -2.2708587940422036 -1.0895560276691312 -2.0407216896170217 -1.0536929955628753 -1.821287302645461 -0.9805520670712415 L -1.9614302023474304 -0.7093443502390859 C -2.143208221634405 -0.7645274876945549 -2.332660878205387 -0.7901965028416835 -2.5225691813160336 -0.7853732917778083 C -2.7233418955948325 -0.7799871790832829 -2.92173272131279 -0.7404625078087128 -3.1092402675178077 -0.6684929786660433 C -3.4264670888815405 -0.5482314239651074 -3.7022695893528454 -0.3390155271790035 -3.903572492549209 -0.06593524796364769 C -4.106929889068312 0.20740919325275664 -4.227812888466311 0.5332420336496442 -4.251943911241579 0.8730789180556218 L -4.251943911241579 0.9161998102716133 L -4.208823019025568 0.9161998102716133 L -4.106127209932231 0.9116607689857201 L -4.069814879645075 0.9116607689857201 L -4.069814879645075 0.9116607689857201 L -3.769670774615345 0.8980436451280382 C -3.776266690161134 0.9852514718665641 -3.773794803701039 1.0729083686439609 -3.762294832525811 1.1596058992276654 C -3.749430997870399 1.261553832325667 -3.7242836591179245 1.3615716569094236 -3.6874006513085718 1.457480483614438 C -3.56766341358966 1.7717584746881794 -3.33014079501469 2.026988435007806 -3.025268003728786 2.168975205178292 C -2.7300460373780835 2.3074156262596093 -2.393394100531205 2.32910241568924 -2.0828495567451313 2.2296848823771187 L -1.9160397894885155 2.490679756316009 C -2.3093700508593886 2.6383239067362556 -2.7450616870637017 2.6248678243827284 -3.128531192982873 2.453232665707387 C -3.5153089369935113 2.280590238358095 -3.8174569386978456 1.9610891419613206 -3.9682538308732367 1.56528271415442 L -3.9682538308732367 1.56528271415442 C -3.9875447563382784 1.5136511195273779 -4.004566161160392 1.4614521447396005 -4.018750665178804 1.4086857897910854 C -4.033143483811736 1.3560101205409938 -4.0446968524124385 1.3025994656983875 -4.053360854983735 1.248684584463332 L -4.05903465659109 1.214641774819128 L -4.093077466235294 1.214641774819128 L -4.195205895167906 1.2191808161050208 L -4.282582439921379 1.223152477230179 L -4.5413077932173005 1.2316631796412298 C -4.594111475516167 0.7778184775878281 -4.496009966696408 0.3192138631865469 -4.262156754134838 -0.07331119005322573 C -4.02386289730045 -0.47532346522730917 -3.6562020854022577 -0.784574616040458 -3.2193120187006796 -0.9504809185521941 C -2.990395969967439 -1.0387881351510961 -2.7474891850111627 -1.0852940227772208 -2.5021434955294923 -1.0877869174504797 Z M -0.9895079870054286 -0.45912969935419323 C -0.7912631060443185 -0.256713098742967 -0.6367618070883458 -0.01569107237168832 -0.5356038584160903 0.24896074124523415 C -0.3817296448484475 0.6492388059052729 -0.3563459237593518 1.087504615334075 -0.46297919784173125 1.5028708964733857 C -0.5654826398708699 1.9050075266375688 -0.7857767204093848 2.267356713819307 -1.095608077063194 2.5434461112645286 L -1.2601483236768578 2.2858555182900577 C -1.0071809244842291 2.0476782640013145 -0.82963705381359 1.740527367741141 -0.7495061790138227 1.4024446080229833 C -0.6660793335898259 1.0550065775793185 -0.6898161040409199 0.69044934473445 -0.8175917983022307 0.3567629717852132 C -0.8831072526859662 0.18595982940873412 -0.9743772845772756 0.026189438152492972 -1.0882321349736364 -0.11699946242995063 C -1.2022227623971715 -0.25979246273195156 -1.3375205461517554 -0.3841822214879529 -1.4893699086145022 -0.48579656690881756 L -1.5251148587409085 -0.5096265336597613 L -1.5455405445274257 -0.4704773025689294 L -1.5926330978685899 -0.3796964768510537 L -1.7475278817497215 -0.08011975198206756 C -1.9146538480824709 -0.19350004573197765 -2.105729819141719 -0.26670699805853526 -2.3058299599146705 -0.29402207257981194 C -2.520161888588793 -0.32272480712332996 -2.738270040023348 -0.2971683063738424 -2.9401609796182635 -0.21969527152329882 C -3.145814854465997 -0.14151170445703398 -3.328047595213396 -0.012015126626887529 -3.469526669585662 0.15647777504514337 C -3.604789930539904 0.3174661027326322 -3.6990172378856636 0.5088409852138176 -3.7441386673822215 0.7142124730493398 L -4.053360854983735 0.7283969770677596 C -4.008384708966732 0.4608260718562429 -3.896338790365106 0.20901555792579218 -3.7276846427208574 -0.0035234302826041564 C -3.5496301702185464 -0.22748643177043726 -3.314396605801294 -0.3992069337950228 -3.046828449836755 -0.5005484510879783 C -2.8657883990492525 -0.5703391049367537 -2.6734743573117266 -0.606301830741671 -2.4794482891000706 -0.6066485411457451 C -2.285464677842548 -0.6064059510961688 -2.0931656753680854 -0.5706383366359145 -1.9120681283633618 -0.5011158312487132 L -1.87972745920136 -0.48863346771250715 L -1.8638408147007222 -0.519271996392288 L -1.816748261359558 -0.6106202022709016 L -1.7878118731619832 -0.6673582183445748 L -1.7878118731619832 -0.6673582183445748 L -1.658449196513999 -0.917005489068731 C -1.407796619163503 -0.8093667445074134 -1.1805668428192209 -0.6538328772386456 -0.9895079870054286 -0.4591296993541977 Z" fill="#202020" transform="matrix(1,0,0,1,0,0)" fill-rule="evenodd"></path></g></g><g><path d=" M 0.13916015625 2.220446049250313e-16 L 0.438720703125 2.220446049250313e-16 L 0.850341796875 0.5698242187500002 L 1.241455078125 2.220446049250313e-16 L 1.532958984375 2.220446049250313e-16 L 1.532958984375 1.0883789062500002 L 1.1103515625 1.0883789062500002 L 1.1103515625 0.5324707031250002 L 0.70458984375 1.1022949218750002 L 0.30029296875 0.5324707031250002 L 0.30029296875 1.0883789062500002 L 0.13916015625 1.0883789062500002 L 0.13916015625 2.220446049250313e-16 M 2.1123046875 0.2746582031250002 L 1.986328125 2.220446049250313e-16 L 2.432373046875 2.220446049250313e-16 L 2.965576171875 1.0891113281250002 L 2.4873046875 1.0891113281250002 L 2.40673828125 0.9147949218750002 L 1.9775390625 0.9147949218750002 L 1.897705078125 1.0891113281250002 L 1.71240234375 1.0891113281250002 L 2.1123046875 0.2746582031250002 M 2.329833984375 0.7470703125000002 L 2.192138671875 0.4482421875000002 L 2.05517578125 0.7470703125000002 L 2.329833984375 0.7470703125000002 M 3.416015625 0.2746582031250002 L 3.2900390625 2.220446049250313e-16 L 3.736083984375 2.220446049250313e-16 L 4.269287109375 1.0891113281250002 L 3.791015625 1.0891113281250002 L 3.71044921875 0.9147949218750002 L 3.28125 0.9147949218750002 L 3.201416015625 1.0891113281250002 L 3.01611328125 1.0891113281250002 L 3.416015625 0.2746582031250002 M 3.633544921875 0.7470703125000002 L 3.495849609375 0.4482421875000002 L 3.35888671875 0.7470703125000002 L 3.633544921875 0.7470703125000002" fill="#202020" fill-rule="nonzero"></path></g><g><path d=" M 0.267 1.4523032226562496 L 0.3165 1.4523032226562496 L 0.3915 1.6413032226562496 L 0.46725 1.4523032226562496 L 0.5175 1.4523032226562496 L 0.4245 1.6795532226562497 L 0.5265 1.9203032226562495 L 0.7192500000000001 1.4485532226562496 L 0.77625 1.4485532226562496 L 0.5505 1.9810532226562496 L 0.504 1.9810532226562496 L 0.39225 1.7178032226562496 L 0.27975 1.9810532226562496 L 0.234 1.9810532226562496 L 0.009000000000000001 1.4485532226562496 L 0.06525 1.4485532226562496 L 0.25875 1.9203032226562495 L 0.36 1.6795532226562497 L 0.267 1.4523032226562496 M 1.2101403808593751 1.9345532226562496 L 1.2101403808593751 1.9810532226562496 L 0.852390380859375 1.9810532226562496 L 0.852390380859375 1.4485532226562496 L 1.203390380859375 1.4485532226562496 L 1.203390380859375 1.4950532226562496 L 0.904890380859375 1.4950532226562496 L 0.904890380859375 1.6870532226562496 L 1.165140380859375 1.6870532226562496 L 1.165140380859375 1.7313032226562497 L 0.904890380859375 1.7313032226562497 L 0.904890380859375 1.9345532226562496 L 1.2101403808593751 1.9345532226562496 M 1.71077197265625 1.8438032226562495 Q 1.71077197265625 1.8835532226562497 1.6905219726562501 1.9146782226562495 Q 1.67027197265625 1.9458032226562496 1.63614697265625 1.9634282226562496 Q 1.6020219726562501 1.9810532226562496 1.5615219726562501 1.9810532226562496 L 1.3102719726562502 1.9810532226562496 L 1.3102719726562502 1.4485532226562496 L 1.5667719726562501 1.4485532226562496 Q 1.60427197265625 1.4485532226562496 1.6316469726562501 1.4684282226562497 Q 1.65902197265625 1.4883032226562496 1.6736469726562502 1.5194282226562497 Q 1.68827197265625 1.5505532226562497 1.68827197265625 1.5843032226562497 Q 1.68827197265625 1.6240532226562496 1.6680219726562502 1.6578032226562496 Q 1.64777197265625 1.6915532226562497 1.61177197265625 1.7080532226562495 Q 1.6575219726562502 1.7215532226562495 1.6841469726562501 1.7583032226562496 Q 1.71077197265625 1.7950532226562497 1.71077197265625 1.8438032226562495 M 1.65827197265625 1.8348032226562496 Q 1.65827197265625 1.8078032226562497 1.64627197265625 1.7849282226562497 Q 1.63427197265625 1.7620532226562495 1.6136469726562501 1.7478032226562497 Q 1.59302197265625 1.7335532226562496 1.5667719726562501 1.7335532226562496 L 1.3627719726562502 1.7335532226562496 L 1.3627719726562502 1.9353032226562497 L 1.5615219726562501 1.9353032226562497 Q 1.58852197265625 1.9353032226562497 1.6102719726562502 1.9210532226562496 Q 1.6320219726562502 1.9068032226562497 1.6451469726562502 1.8839282226562497 Q 1.65827197265625 1.8610532226562495 1.65827197265625 1.8348032226562496 M 1.3627719726562502 1.4943032226562496 L 1.3627719726562502 1.6908032226562497 L 1.54577197265625 1.6908032226562497 Q 1.57202197265625 1.6908032226562497 1.59227197265625 1.6769282226562496 Q 1.61252197265625 1.6630532226562496 1.62452197265625 1.6405532226562496 Q 1.63652197265625 1.6180532226562496 1.63652197265625 1.5925532226562495 Q 1.63652197265625 1.5655532226562496 1.6252719726562501 1.5434282226562497 Q 1.6140219726562501 1.5213032226562495 1.59452197265625 1.5078032226562497 Q 1.5750219726562502 1.4943032226562496 1.5502719726562502 1.4943032226562496 L 1.3627719726562502 1.4943032226562496 M 2.3145373535156253 1.5483032226562496 Q 2.3032873535156253 1.5355532226562496 2.288287353515625 1.5254282226562497 Q 2.273287353515625 1.5153032226562497 2.2545373535156252 1.5078032226562497 Q 2.235787353515625 1.5003032226562496 2.214412353515625 1.4958032226562497 Q 2.193037353515625 1.4913032226562497 2.169037353515625 1.4913032226562497 Q 2.099287353515625 1.4913032226562497 2.066662353515625 1.5179282226562496 Q 2.0340373535156253 1.5445532226562495 2.0340373535156253 1.5903032226562497 Q 2.0340373535156253 1.6218032226562495 2.049412353515625 1.6398032226562496 Q 2.064787353515625 1.6578032226562496 2.097787353515625 1.6690532226562496 Q 2.130787353515625 1.6803032226562495 2.181787353515625 1.6923032226562496 Q 2.238787353515625 1.7043032226562496 2.2800373535156253 1.7208032226562495 Q 2.321287353515625 1.7373032226562497 2.343787353515625 1.7654282226562497 Q 2.366287353515625 1.7935532226562496 2.366287353515625 1.8415532226562497 Q 2.366287353515625 1.8783032226562497 2.3520373535156254 1.9053032226562496 Q 2.3377873535156253 1.9323032226562495 2.312287353515625 1.9503032226562496 Q 2.286787353515625 1.9683032226562496 2.251537353515625 1.9769282226562497 Q 2.216287353515625 1.9855532226562496 2.1742873535156253 1.9855532226562496 Q 2.133037353515625 1.9855532226562496 2.095162353515625 1.9769282226562497 Q 2.0572873535156253 1.9683032226562496 2.0235373535156254 1.9514282226562496 Q 1.9897873535156252 1.9345532226562496 1.9605373535156252 1.9083032226562495 L 1.986787353515625 1.8655532226562497 Q 2.001037353515625 1.8805532226562496 2.0209123535156253 1.8936782226562496 Q 2.040787353515625 1.9068032226562497 2.065162353515625 1.9173032226562496 Q 2.089537353515625 1.9278032226562496 2.1176623535156254 1.9334282226562496 Q 2.145787353515625 1.9390532226562496 2.1757873535156254 1.9390532226562496 Q 2.239537353515625 1.9390532226562496 2.275162353515625 1.9158032226562496 Q 2.310787353515625 1.8925532226562496 2.310787353515625 1.8468032226562496 Q 2.310787353515625 1.8138032226562495 2.2927873535156253 1.7939282226562496 Q 2.274787353515625 1.7740532226562495 2.238787353515625 1.7613032226562497 Q 2.202787353515625 1.7485532226562497 2.1502873535156253 1.7365532226562497 Q 2.094787353515625 1.7238032226562496 2.0565373535156253 1.7080532226562495 Q 2.018287353515625 1.6923032226562496 1.999162353515625 1.6664282226562497 Q 1.9800373535156253 1.6405532226562496 1.9800373535156253 1.5978032226562495 Q 1.9800373535156253 1.5483032226562496 2.004412353515625 1.5141782226562497 Q 2.028787353515625 1.4800532226562497 2.071537353515625 1.4624282226562495 Q 2.1142873535156252 1.4448032226562497 2.169787353515625 1.4448032226562497 Q 2.205037353515625 1.4448032226562497 2.235412353515625 1.4519282226562495 Q 2.265787353515625 1.4590532226562496 2.2916623535156253 1.4725532226562494 Q 2.3175373535156254 1.4860532226562495 2.3400373535156254 1.5063032226562496 L 2.3145373535156253 1.5483032226562496 M 2.6741583251953127 1.9848032226562495 Q 2.617908325195313 1.9848032226562495 2.572158325195313 1.9623032226562496 Q 2.526408325195313 1.9398032226562496 2.4934083251953125 1.9011782226562497 Q 2.4604083251953126 1.8625532226562496 2.442408325195313 1.8141782226562495 Q 2.4244083251953126 1.7658032226562497 2.4244083251953126 1.7148032226562497 Q 2.4244083251953126 1.6615532226562495 2.443158325195313 1.6131782226562497 Q 2.4619083251953127 1.5648032226562496 2.4960333251953126 1.5269282226562497 Q 2.5301583251953126 1.4890532226562496 2.5759083251953125 1.4669282226562497 Q 2.6216583251953125 1.4448032226562497 2.6749083251953127 1.4448032226562497 Q 2.7311583251953127 1.4448032226562497 2.7769083251953126 1.4680532226562497 Q 2.8226583251953126 1.4913032226562497 2.855283325195313 1.5303032226562496 Q 2.887908325195313 1.5693032226562496 2.9059083251953126 1.6173032226562496 Q 2.923908325195313 1.6653032226562496 2.923908325195313 1.7155532226562495 Q 2.923908325195313 1.7688032226562496 2.9051583251953126 1.8171782226562496 Q 2.8864083251953128 1.8655532226562497 2.852658325195313 1.9034282226562496 Q 2.818908325195313 1.9413032226562497 2.773158325195313 1.9630532226562496 Q 2.727408325195313 1.9848032226562495 2.6741583251953127 1.9848032226562495 M 2.476908325195313 1.7148032226562497 Q 2.476908325195313 1.7583032226562496 2.491158325195313 1.7984282226562496 Q 2.5054083251953125 1.8385532226562495 2.5316583251953126 1.8696782226562496 Q 2.5579083251953127 1.9008032226562497 2.594283325195313 1.9191782226562497 Q 2.630658325195313 1.9375532226562495 2.6741583251953127 1.9375532226562495 Q 2.7199083251953127 1.9375532226562495 2.7562833251953127 1.9184282226562497 Q 2.7926583251953128 1.8993032226562496 2.818533325195313 1.8674282226562495 Q 2.844408325195313 1.8355532226562497 2.8579083251953126 1.7958032226562497 Q 2.8714083251953126 1.7560532226562495 2.8714083251953126 1.7148032226562497 Q 2.8714083251953126 1.6713032226562496 2.8571583251953125 1.6315532226562497 Q 2.842908325195313 1.5918032226562495 2.8162833251953128 1.5603032226562497 Q 2.7896583251953126 1.5288032226562496 2.7536583251953126 1.5108032226562496 Q 2.7176583251953126 1.4928032226562495 2.6741583251953127 1.4928032226562495 Q 2.629158325195313 1.4928032226562495 2.5927833251953127 1.5115532226562496 Q 2.5564083251953127 1.5303032226562496 2.5305333251953126 1.5621782226562497 Q 2.5046583251953125 1.5940532226562496 2.490783325195313 1.6338032226562496 Q 2.476908325195313 1.6735532226562495 2.476908325195313 1.7148032226562497 M 3.0240157470703126 1.9810532226562496 L 3.0240157470703126 1.4485532226562496 L 3.076515747070313 1.4485532226562496 L 3.076515747070313 1.9345532226562496 L 3.384015747070313 1.9345532226562496 L 3.384015747070313 1.9810532226562496 L 3.0240157470703126 1.9810532226562496 M 3.655892211914063 1.9848032226562495 Q 3.5928922119140627 1.9848032226562495 3.549392211914063 1.9623032226562496 Q 3.505892211914063 1.9398032226562496 3.480392211914063 1.9019282226562497 Q 3.454892211914063 1.8640532226562496 3.443267211914063 1.8160532226562496 Q 3.431642211914063 1.7680532226562495 3.431642211914063 1.7170532226562496 L 3.431642211914063 1.4485532226562496 L 3.483392211914063 1.4485532226562496 L 3.483392211914063 1.7170532226562496 Q 3.483392211914063 1.7583032226562496 3.492017211914063 1.7980532226562496 Q 3.5006422119140628 1.8378032226562495 3.5201422119140626 1.8693032226562496 Q 3.539642211914063 1.9008032226562497 3.572642211914063 1.9191782226562497 Q 3.6056422119140628 1.9375532226562495 3.655142211914063 1.9375532226562495 Q 3.706142211914063 1.9375532226562495 3.739517211914063 1.9184282226562497 Q 3.772892211914063 1.8993032226562496 3.7920172119140627 1.8678032226562495 Q 3.811142211914063 1.8363032226562497 3.819392211914063 1.7969282226562495 Q 3.8276422119140627 1.7575532226562496 3.8276422119140627 1.7170532226562496 L 3.8276422119140627 1.4485532226562496 L 3.880142211914063 1.4485532226562496 L 3.880142211914063 1.7170532226562496 Q 3.880142211914063 1.7703032226562496 3.868142211914063 1.8190532226562497 Q 3.856142211914063 1.8678032226562495 3.829517211914063 1.9045532226562496 Q 3.8028922119140627 1.9413032226562497 3.760142211914063 1.9630532226562496 Q 3.717392211914063 1.9848032226562495 3.655892211914063 1.9848032226562495 M 4.384520874023438 1.4950532226562496 L 4.194770874023438 1.4950532226562496 L 4.194770874023438 1.9810532226562496 L 4.1422708740234375 1.9810532226562496 L 4.1422708740234375 1.4950532226562496 L 3.952520874023438 1.4950532226562496 L 3.952520874023438 1.4485532226562496 L 4.384520874023438 1.4485532226562496 L 4.384520874023438 1.4950532226562496 M 4.465134887695313 1.9810532226562496 L 4.465134887695313 1.4485532226562496 L 4.517634887695313 1.4485532226562496 L 4.517634887695313 1.9810532226562496 L 4.465134887695313 1.9810532226562496 M 4.866749267578125 1.9848032226562495 Q 4.810499267578125 1.9848032226562495 4.764749267578125 1.9623032226562496 Q 4.718999267578125 1.9398032226562496 4.685999267578126 1.9011782226562497 Q 4.652999267578125 1.8625532226562496 4.6349992675781255 1.8141782226562495 Q 4.616999267578126 1.7658032226562497 4.616999267578126 1.7148032226562497 Q 4.616999267578126 1.6615532226562495 4.6357492675781256 1.6131782226562497 Q 4.654499267578125 1.5648032226562496 4.688624267578126 1.5269282226562497 Q 4.722749267578125 1.4890532226562496 4.768499267578125 1.4669282226562497 Q 4.814249267578125 1.4448032226562497 4.8674992675781255 1.4448032226562497 Q 4.923749267578126 1.4448032226562497 4.969499267578126 1.4680532226562497 Q 5.015249267578126 1.4913032226562497 5.047874267578125 1.5303032226562496 Q 5.0804992675781255 1.5693032226562496 5.098499267578125 1.6173032226562496 Q 5.116499267578125 1.6653032226562496 5.116499267578125 1.7155532226562495 Q 5.116499267578125 1.7688032226562496 5.097749267578125 1.8171782226562496 Q 5.0789992675781255 1.8655532226562497 5.045249267578125 1.9034282226562496 Q 5.011499267578126 1.9413032226562497 4.965749267578126 1.9630532226562496 Q 4.919999267578126 1.9848032226562495 4.866749267578125 1.9848032226562495 M 4.669499267578125 1.7148032226562497 Q 4.669499267578125 1.7583032226562496 4.683749267578126 1.7984282226562496 Q 4.697999267578125 1.8385532226562495 4.724249267578125 1.8696782226562496 Q 4.7504992675781255 1.9008032226562497 4.786874267578125 1.9191782226562497 Q 4.8232492675781256 1.9375532226562495 4.866749267578125 1.9375532226562495 Q 4.912499267578125 1.9375532226562495 4.948874267578125 1.9184282226562497 Q 4.9852492675781255 1.8993032226562496 5.011124267578126 1.8674282226562495 Q 5.036999267578126 1.8355532226562497 5.050499267578125 1.7958032226562497 Q 5.063999267578126 1.7560532226562495 5.063999267578126 1.7148032226562497 Q 5.063999267578126 1.6713032226562496 5.049749267578125 1.6315532226562497 Q 5.035499267578126 1.5918032226562495 5.0088742675781255 1.5603032226562497 Q 4.982249267578125 1.5288032226562496 4.946249267578126 1.5108032226562496 Q 4.910249267578125 1.4928032226562495 4.866749267578125 1.4928032226562495 Q 4.8217492675781255 1.4928032226562495 4.785374267578125 1.5115532226562496 Q 4.748999267578125 1.5303032226562496 4.723124267578125 1.5621782226562497 Q 4.697249267578125 1.5940532226562496 4.683374267578126 1.6338032226562496 Q 4.669499267578125 1.6735532226562495 4.669499267578125 1.7148032226562497 M 5.2691066894531255 1.5453032226562495 L 5.2691066894531255 1.9810532226562496 L 5.216606689453125 1.9810532226562496 L 5.216606689453125 1.4485532226562496 L 5.260106689453125 1.4485532226562496 L 5.609606689453125 1.8925532226562496 L 5.609606689453125 1.4493032226562494 L 5.662106689453125 1.4493032226562494 L 5.662106689453125 1.9810532226562496 L 5.613356689453125 1.9810532226562496 L 5.2691066894531255 1.5453032226562495 M 6.107961181640626 1.5483032226562496 Q 6.096711181640625 1.5355532226562496 6.0817111816406255 1.5254282226562497 Q 6.066711181640626 1.5153032226562497 6.047961181640625 1.5078032226562497 Q 6.029211181640625 1.5003032226562496 6.007836181640625 1.4958032226562497 Q 5.9864611816406255 1.4913032226562497 5.962461181640625 1.4913032226562497 Q 5.8927111816406255 1.4913032226562497 5.860086181640625 1.5179282226562496 Q 5.827461181640626 1.5445532226562495 5.827461181640626 1.5903032226562497 Q 5.827461181640626 1.6218032226562495 5.842836181640625 1.6398032226562496 Q 5.858211181640626 1.6578032226562496 5.891211181640625 1.6690532226562496 Q 5.924211181640626 1.6803032226562495 5.975211181640626 1.6923032226562496 Q 6.032211181640625 1.7043032226562496 6.073461181640625 1.7208032226562495 Q 6.114711181640626 1.7373032226562497 6.137211181640626 1.7654282226562497 Q 6.159711181640626 1.7935532226562496 6.159711181640626 1.8415532226562497 Q 6.159711181640626 1.8783032226562497 6.145461181640625 1.9053032226562496 Q 6.131211181640626 1.9323032226562495 6.1057111816406255 1.9503032226562496 Q 6.0802111816406255 1.9683032226562496 6.044961181640626 1.9769282226562497 Q 6.0097111816406255 1.9855532226562496 5.967711181640626 1.9855532226562496 Q 5.926461181640626 1.9855532226562496 5.888586181640625 1.9769282226562497 Q 5.850711181640626 1.9683032226562496 5.816961181640625 1.9514282226562496 Q 5.783211181640626 1.9345532226562496 5.7539611816406255 1.9083032226562495 L 5.780211181640626 1.8655532226562497 Q 5.794461181640625 1.8805532226562496 5.814336181640625 1.8936782226562496 Q 5.834211181640626 1.9068032226562497 5.858586181640625 1.9173032226562496 Q 5.882961181640625 1.9278032226562496 5.911086181640625 1.9334282226562496 Q 5.9392111816406254 1.9390532226562496 5.969211181640626 1.9390532226562496 Q 6.0329611816406254 1.9390532226562496 6.068586181640626 1.9158032226562496 Q 6.1042111816406255 1.8925532226562496 6.1042111816406255 1.8468032226562496 Q 6.1042111816406255 1.8138032226562495 6.086211181640626 1.7939282226562496 Q 6.068211181640626 1.7740532226562495 6.032211181640625 1.7613032226562497 Q 5.996211181640626 1.7485532226562497 5.943711181640626 1.7365532226562497 Q 5.888211181640625 1.7238032226562496 5.849961181640626 1.7080532226562495 Q 5.811711181640626 1.6923032226562496 5.792586181640625 1.6664282226562497 Q 5.773461181640625 1.6405532226562496 5.773461181640625 1.5978032226562495 Q 5.773461181640625 1.5483032226562496 5.797836181640625 1.5141782226562497 Q 5.8222111816406255 1.4800532226562497 5.864961181640625 1.4624282226562495 Q 5.907711181640625 1.4448032226562497 5.9632111816406255 1.4448032226562497 Q 5.998461181640626 1.4448032226562497 6.028836181640625 1.4519282226562495 Q 6.0592111816406256 1.4590532226562496 6.085086181640626 1.4725532226562494 Q 6.110961181640626 1.4860532226562495 6.133461181640626 1.5063032226562496 L 6.107961181640626 1.5483032226562496" fill="#202020" fill-rule="nonzero"></path></g></g><defs><clipPath id="SvgjsClipPath1603"><path d=" M -4.555492297235737 -1.0872195372897433 h 4.155492297235736 v 4.155492297235736 h -4.155492297235736 Z"></path></clipPath><clipPath id="SvgjsClipPath16019ca38259-8067-4675-8ee4-f1f153b60502"><path d=" M -4.555492297235737 -1.0872195372897433 L -0.40000000000000036 -1.0872195372897433 L -0.40000000000000036 3.0682727599459927 L -4.555492297235737 3.0682727599459927 Z"></path></clipPath></defs></svg>